<mxfile host="65bd71144e">
    <diagram id="pb3T96yxwLDmCUXIyjci" name="Page-1">
        <mxGraphModel dx="1471" dy="1420" grid="0" gridSize="10" guides="1" tooltips="1" connect="1" arrows="1" fold="1" page="0" pageScale="1" pageWidth="850" pageHeight="1100" background="#ffffff" math="0" shadow="0">
            <root>
                <mxCell id="0"/>
                <mxCell id="1" parent="0"/>
                <mxCell id="5" style="edgeStyle=none;html=1;exitX=1;exitY=0.5;exitDx=0;exitDy=0;entryX=0;entryY=0.5;entryDx=0;entryDy=0;fontColor=#000000;strokeColor=#000000;endArrow=none;endFill=0;startArrow=ERone;startFill=0;" edge="1" parent="1" source="2" target="4">
                    <mxGeometry relative="1" as="geometry"/>
                </mxCell>
                <mxCell id="47" style="edgeStyle=none;rounded=0;html=1;exitX=0;exitY=0.5;exitDx=0;exitDy=0;entryX=1;entryY=0.5;entryDx=0;entryDy=0;strokeColor=#000000;fontColor=#000000;startArrow=none;startFill=0;endArrow=none;endFill=0;" edge="1" parent="1" source="2" target="30">
                    <mxGeometry relative="1" as="geometry"/>
                </mxCell>
                <mxCell id="50" style="edgeStyle=none;rounded=0;html=1;exitX=0;exitY=0.5;exitDx=0;exitDy=0;entryX=1;entryY=0.5;entryDx=0;entryDy=0;strokeColor=#000000;fontColor=#000000;startArrow=none;startFill=0;endArrow=none;endFill=0;" edge="1" parent="1" source="2" target="28">
                    <mxGeometry relative="1" as="geometry"/>
                </mxCell>
                <mxCell id="2" value="&lt;font color=&quot;#000000&quot;&gt;Концертные площадки&lt;/font&gt;" style="rounded=0;whiteSpace=wrap;html=1;fillColor=none;strokeColor=#000000;" vertex="1" parent="1">
                    <mxGeometry x="-100" y="66" width="120" height="60" as="geometry"/>
                </mxCell>
                <mxCell id="3" value="&lt;font color=&quot;#000000&quot;&gt;Мероприятия&lt;/font&gt;" style="rounded=0;whiteSpace=wrap;html=1;fillColor=none;strokeColor=#000000;" vertex="1" parent="1">
                    <mxGeometry x="200" y="66" width="120" height="60" as="geometry"/>
                </mxCell>
                <mxCell id="6" style="edgeStyle=none;html=1;exitX=1;exitY=0.5;exitDx=0;exitDy=0;entryX=0;entryY=0.5;entryDx=0;entryDy=0;strokeColor=#000000;fontColor=#000000;endArrow=ERmany;endFill=0;" edge="1" parent="1" source="4" target="3">
                    <mxGeometry relative="1" as="geometry"/>
                </mxCell>
                <mxCell id="4" value="Проводятся" style="rhombus;whiteSpace=wrap;html=1;strokeColor=#000000;fontColor=#000000;fillColor=none;" vertex="1" parent="1">
                    <mxGeometry x="70" y="66" width="80" height="60" as="geometry"/>
                </mxCell>
                <mxCell id="10" style="edgeStyle=none;html=1;exitX=0.5;exitY=0;exitDx=0;exitDy=0;entryX=0.5;entryY=1;entryDx=0;entryDy=0;strokeColor=#000000;fontColor=#000000;startArrow=none;startFill=0;endArrow=ERoneToMany;endFill=0;" edge="1" parent="1" source="7" target="8">
                    <mxGeometry relative="1" as="geometry"/>
                </mxCell>
                <mxCell id="11" style="edgeStyle=none;html=1;exitX=0.5;exitY=1;exitDx=0;exitDy=0;entryX=0.5;entryY=0;entryDx=0;entryDy=0;strokeColor=#000000;fontColor=#000000;startArrow=none;startFill=0;endArrow=ERoneToMany;endFill=0;" edge="1" parent="1" source="7" target="3">
                    <mxGeometry relative="1" as="geometry"/>
                </mxCell>
                <mxCell id="7" value="Выступают" style="rhombus;whiteSpace=wrap;html=1;strokeColor=#000000;fontColor=#000000;fillColor=none;" vertex="1" parent="1">
                    <mxGeometry x="220" y="-43" width="80" height="60" as="geometry"/>
                </mxCell>
                <mxCell id="8" value="&lt;font color=&quot;#000000&quot;&gt;Исполнители&lt;/font&gt;" style="rounded=0;whiteSpace=wrap;html=1;fillColor=none;strokeColor=#000000;" vertex="1" parent="1">
                    <mxGeometry x="200" y="-152" width="120" height="60" as="geometry"/>
                </mxCell>
                <mxCell id="14" style="edgeStyle=none;html=1;exitX=0.5;exitY=1;exitDx=0;exitDy=0;entryX=0.5;entryY=0;entryDx=0;entryDy=0;strokeColor=#000000;fontColor=#000000;startArrow=none;startFill=0;endArrow=ERmany;endFill=0;" edge="1" parent="1" source="12" target="13">
                    <mxGeometry relative="1" as="geometry"/>
                </mxCell>
                <mxCell id="15" style="edgeStyle=none;html=1;exitX=0.5;exitY=0;exitDx=0;exitDy=0;entryX=0.5;entryY=1;entryDx=0;entryDy=0;strokeColor=#000000;fontColor=#000000;startArrow=none;startFill=0;endArrow=ERone;endFill=0;" edge="1" parent="1" source="12" target="3">
                    <mxGeometry relative="1" as="geometry"/>
                </mxCell>
                <mxCell id="12" value="Дает доступ к" style="rhombus;whiteSpace=wrap;html=1;strokeColor=#000000;fontColor=#000000;fillColor=none;" vertex="1" parent="1">
                    <mxGeometry x="210" y="175" width="100" height="60" as="geometry"/>
                </mxCell>
                <mxCell id="64" style="edgeStyle=none;rounded=0;html=1;exitX=1;exitY=0.5;exitDx=0;exitDy=0;entryX=0;entryY=0.5;entryDx=0;entryDy=0;strokeColor=#000000;fontColor=#000000;startArrow=none;startFill=0;endArrow=none;endFill=0;" edge="1" parent="1" source="13" target="63">
                    <mxGeometry relative="1" as="geometry"/>
                </mxCell>
                <mxCell id="66" style="edgeStyle=none;rounded=0;html=1;exitX=1;exitY=0.5;exitDx=0;exitDy=0;entryX=0;entryY=0.5;entryDx=0;entryDy=0;strokeColor=#000000;fontColor=#000000;startArrow=none;startFill=0;endArrow=none;endFill=0;" edge="1" parent="1" source="13" target="61">
                    <mxGeometry relative="1" as="geometry"/>
                </mxCell>
                <mxCell id="13" value="&lt;font color=&quot;#000000&quot;&gt;Билеты&lt;br&gt;&lt;/font&gt;" style="rounded=0;whiteSpace=wrap;html=1;fillColor=none;strokeColor=#000000;" vertex="1" parent="1">
                    <mxGeometry x="200" y="284" width="120" height="60" as="geometry"/>
                </mxCell>
                <mxCell id="20" style="edgeStyle=none;html=1;exitX=1;exitY=0.5;exitDx=0;exitDy=0;entryX=0;entryY=0.5;entryDx=0;entryDy=0;strokeColor=#000000;fontColor=#000000;startArrow=none;startFill=0;endArrow=ERoneToMany;endFill=0;" edge="1" parent="1" source="16" target="13">
                    <mxGeometry relative="1" as="geometry"/>
                </mxCell>
                <mxCell id="21" style="edgeStyle=none;html=1;exitX=0;exitY=0.5;exitDx=0;exitDy=0;entryX=1;entryY=0.5;entryDx=0;entryDy=0;strokeColor=#000000;fontColor=#000000;startArrow=none;startFill=0;endArrow=ERmany;endFill=0;" edge="1" parent="1" source="16" target="17">
                    <mxGeometry relative="1" as="geometry"/>
                </mxCell>
                <mxCell id="25" style="edgeStyle=none;html=1;exitX=0.5;exitY=0;exitDx=0;exitDy=0;entryX=0.5;entryY=1;entryDx=0;entryDy=0;strokeColor=#000000;fontColor=#000000;startArrow=none;startFill=0;endArrow=none;endFill=0;" edge="1" parent="1" source="16" target="24">
                    <mxGeometry relative="1" as="geometry"/>
                </mxCell>
                <mxCell id="16" value="Заказываются" style="rhombus;whiteSpace=wrap;html=1;strokeColor=#000000;fontColor=#000000;fillColor=none;" vertex="1" parent="1">
                    <mxGeometry x="61.5" y="284" width="97" height="60" as="geometry"/>
                </mxCell>
                <mxCell id="17" value="&lt;font color=&quot;#000000&quot;&gt;Заказы&lt;/font&gt;" style="rounded=0;whiteSpace=wrap;html=1;fillColor=none;strokeColor=#000000;" vertex="1" parent="1">
                    <mxGeometry x="-100" y="284" width="120" height="60" as="geometry"/>
                </mxCell>
                <mxCell id="22" style="edgeStyle=none;html=1;exitX=0.5;exitY=1;exitDx=0;exitDy=0;entryX=0.5;entryY=0;entryDx=0;entryDy=0;strokeColor=#000000;fontColor=#000000;startArrow=none;startFill=0;endArrow=ERone;endFill=0;" edge="1" parent="1" source="18" target="19">
                    <mxGeometry relative="1" as="geometry"/>
                </mxCell>
                <mxCell id="23" style="edgeStyle=none;html=1;exitX=0.5;exitY=0;exitDx=0;exitDy=0;entryX=0.5;entryY=1;entryDx=0;entryDy=0;strokeColor=#000000;fontColor=#000000;startArrow=none;startFill=0;endArrow=ERoneToMany;endFill=0;" edge="1" parent="1" source="18" target="17">
                    <mxGeometry relative="1" as="geometry"/>
                </mxCell>
                <mxCell id="18" value="Делаются" style="rhombus;whiteSpace=wrap;html=1;strokeColor=#000000;fontColor=#000000;fillColor=none;" vertex="1" parent="1">
                    <mxGeometry x="-88.5" y="393" width="97" height="60" as="geometry"/>
                </mxCell>
                <mxCell id="77" style="edgeStyle=none;rounded=0;html=1;exitX=0;exitY=0.5;exitDx=0;exitDy=0;entryX=1;entryY=0.5;entryDx=0;entryDy=0;strokeColor=#000000;fontColor=#000000;startArrow=none;startFill=0;endArrow=none;endFill=0;" edge="1" parent="1" source="19" target="73">
                    <mxGeometry relative="1" as="geometry"/>
                </mxCell>
                <mxCell id="19" value="&lt;font color=&quot;#000000&quot;&gt;Покупатели&lt;/font&gt;" style="rounded=0;whiteSpace=wrap;html=1;fillColor=none;strokeColor=#000000;" vertex="1" parent="1">
                    <mxGeometry x="-100" y="502" width="120" height="60" as="geometry"/>
                </mxCell>
                <mxCell id="24" value="Количество" style="ellipse;whiteSpace=wrap;html=1;strokeColor=#000000;fontColor=#000000;fillColor=none;" vertex="1" parent="1">
                    <mxGeometry x="67.25" y="176.5" width="85.5" height="57" as="geometry"/>
                </mxCell>
                <mxCell id="52" style="edgeStyle=none;rounded=0;html=1;exitX=1;exitY=0.5;exitDx=0;exitDy=0;entryX=0;entryY=0.5;entryDx=0;entryDy=0;strokeColor=#000000;fontColor=#000000;startArrow=none;startFill=0;endArrow=none;endFill=0;" edge="1" parent="1" source="26" target="2">
                    <mxGeometry relative="1" as="geometry"/>
                </mxCell>
                <mxCell id="26" value="Название" style="ellipse;whiteSpace=wrap;html=1;strokeColor=#000000;fontColor=#000000;fillColor=none;" vertex="1" parent="1">
                    <mxGeometry x="-219" y="179.5" width="85.5" height="31" as="geometry"/>
                </mxCell>
                <mxCell id="51" style="edgeStyle=none;rounded=0;html=1;exitX=1;exitY=0.5;exitDx=0;exitDy=0;entryX=0;entryY=0.5;entryDx=0;entryDy=0;strokeColor=#000000;fontColor=#000000;startArrow=none;startFill=0;endArrow=none;endFill=0;" edge="1" parent="1" source="27" target="2">
                    <mxGeometry relative="1" as="geometry"/>
                </mxCell>
                <mxCell id="27" value="Адрес" style="ellipse;whiteSpace=wrap;html=1;strokeColor=#000000;fontColor=#000000;fillColor=none;" vertex="1" parent="1">
                    <mxGeometry x="-219" y="129" width="85.5" height="35" as="geometry"/>
                </mxCell>
                <mxCell id="28" value="Город" style="ellipse;whiteSpace=wrap;html=1;strokeColor=#000000;fontColor=#000000;fillColor=none;" vertex="1" parent="1">
                    <mxGeometry x="-219" y="79.5" width="85.5" height="35" as="geometry"/>
                </mxCell>
                <mxCell id="48" style="edgeStyle=none;rounded=0;html=1;exitX=1;exitY=0.5;exitDx=0;exitDy=0;entryX=0;entryY=0.5;entryDx=0;entryDy=0;strokeColor=#000000;fontColor=#000000;startArrow=none;startFill=0;endArrow=none;endFill=0;" edge="1" parent="1" source="29" target="2">
                    <mxGeometry relative="1" as="geometry"/>
                </mxCell>
                <mxCell id="29" value="Вместимость" style="ellipse;whiteSpace=wrap;html=1;strokeColor=#000000;fontColor=#000000;fillColor=none;" vertex="1" parent="1">
                    <mxGeometry x="-219" y="30.5" width="85.5" height="35" as="geometry"/>
                </mxCell>
                <mxCell id="30" value="Телефон" style="ellipse;whiteSpace=wrap;html=1;strokeColor=#000000;fontColor=#000000;fillColor=none;" vertex="1" parent="1">
                    <mxGeometry x="-219" y="-18.5" width="85.5" height="35" as="geometry"/>
                </mxCell>
                <mxCell id="40" style="edgeStyle=none;rounded=0;html=1;exitX=1;exitY=0.5;exitDx=0;exitDy=0;entryX=0;entryY=0.5;entryDx=0;entryDy=0;strokeColor=#000000;fontColor=#000000;startArrow=none;startFill=0;endArrow=none;endFill=0;" edge="1" parent="1" source="37" target="8">
                    <mxGeometry relative="1" as="geometry"/>
                </mxCell>
                <mxCell id="37" value="Страна" style="ellipse;whiteSpace=wrap;html=1;strokeColor=#000000;fontColor=#000000;fillColor=none;" vertex="1" parent="1">
                    <mxGeometry x="67.25" y="-80" width="85.5" height="35" as="geometry"/>
                </mxCell>
                <mxCell id="43" style="edgeStyle=none;rounded=0;html=1;exitX=1;exitY=0.5;exitDx=0;exitDy=0;entryX=0;entryY=0.5;entryDx=0;entryDy=0;strokeColor=#000000;fontColor=#000000;startArrow=none;startFill=0;endArrow=none;endFill=0;" edge="1" parent="1" source="38" target="8">
                    <mxGeometry relative="1" as="geometry"/>
                </mxCell>
                <mxCell id="38" value="Жанр" style="ellipse;whiteSpace=wrap;html=1;strokeColor=#000000;fontColor=#000000;fillColor=none;" vertex="1" parent="1">
                    <mxGeometry x="67.25" y="-129" width="85.5" height="35" as="geometry"/>
                </mxCell>
                <mxCell id="42" style="edgeStyle=none;rounded=0;html=1;exitX=1;exitY=0.5;exitDx=0;exitDy=0;entryX=0;entryY=0.5;entryDx=0;entryDy=0;strokeColor=#000000;fontColor=#000000;startArrow=none;startFill=0;endArrow=none;endFill=0;" edge="1" parent="1" source="39" target="8">
                    <mxGeometry relative="1" as="geometry"/>
                </mxCell>
                <mxCell id="39" value="Имя" style="ellipse;whiteSpace=wrap;html=1;strokeColor=#000000;fontColor=#000000;fillColor=none;" vertex="1" parent="1">
                    <mxGeometry x="67.25" y="-178" width="85.5" height="35" as="geometry"/>
                </mxCell>
                <mxCell id="60" style="edgeStyle=none;rounded=0;html=1;exitX=0;exitY=0.5;exitDx=0;exitDy=0;entryX=1;entryY=0.5;entryDx=0;entryDy=0;strokeColor=#000000;fontColor=#000000;startArrow=none;startFill=0;endArrow=none;endFill=0;" edge="1" parent="1" source="53" target="3">
                    <mxGeometry relative="1" as="geometry"/>
                </mxCell>
                <mxCell id="53" value="Время кон." style="ellipse;whiteSpace=wrap;html=1;strokeColor=#000000;fontColor=#000000;fillColor=none;" vertex="1" parent="1">
                    <mxGeometry x="380" y="147.5" width="85.5" height="35" as="geometry"/>
                </mxCell>
                <mxCell id="59" style="edgeStyle=none;rounded=0;html=1;exitX=0;exitY=0.5;exitDx=0;exitDy=0;entryX=1;entryY=0.5;entryDx=0;entryDy=0;strokeColor=#000000;fontColor=#000000;startArrow=none;startFill=0;endArrow=none;endFill=0;" edge="1" parent="1" source="54" target="3">
                    <mxGeometry relative="1" as="geometry"/>
                </mxCell>
                <mxCell id="54" value="Время нач." style="ellipse;whiteSpace=wrap;html=1;strokeColor=#000000;fontColor=#000000;fillColor=none;" vertex="1" parent="1">
                    <mxGeometry x="380" y="98" width="85.5" height="35" as="geometry"/>
                </mxCell>
                <mxCell id="58" style="edgeStyle=none;rounded=0;html=1;exitX=0;exitY=0.5;exitDx=0;exitDy=0;entryX=1;entryY=0.5;entryDx=0;entryDy=0;strokeColor=#000000;fontColor=#000000;startArrow=none;startFill=0;endArrow=none;endFill=0;" edge="1" parent="1" source="55" target="3">
                    <mxGeometry relative="1" as="geometry"/>
                </mxCell>
                <mxCell id="55" value="Дата" style="ellipse;whiteSpace=wrap;html=1;strokeColor=#000000;fontColor=#000000;fillColor=none;" vertex="1" parent="1">
                    <mxGeometry x="380" y="49" width="85.5" height="35" as="geometry"/>
                </mxCell>
                <mxCell id="57" style="edgeStyle=none;rounded=0;html=1;exitX=0;exitY=0.5;exitDx=0;exitDy=0;entryX=1;entryY=0.5;entryDx=0;entryDy=0;strokeColor=#000000;fontColor=#000000;startArrow=none;startFill=0;endArrow=none;endFill=0;" edge="1" parent="1" source="56" target="3">
                    <mxGeometry relative="1" as="geometry"/>
                </mxCell>
                <mxCell id="56" value="Название" style="ellipse;whiteSpace=wrap;html=1;strokeColor=#000000;fontColor=#000000;fillColor=none;" vertex="1" parent="1">
                    <mxGeometry x="380" width="85.5" height="35" as="geometry"/>
                </mxCell>
                <mxCell id="61" value="Статус" style="ellipse;whiteSpace=wrap;html=1;strokeColor=#000000;fontColor=#000000;fillColor=none;" vertex="1" parent="1">
                    <mxGeometry x="361" y="345.5" width="85.5" height="35" as="geometry"/>
                </mxCell>
                <mxCell id="65" style="edgeStyle=none;rounded=0;html=1;exitX=0;exitY=0.5;exitDx=0;exitDy=0;entryX=1;entryY=0.5;entryDx=0;entryDy=0;strokeColor=#000000;fontColor=#000000;startArrow=none;startFill=0;endArrow=none;endFill=0;" edge="1" parent="1" source="62" target="13">
                    <mxGeometry relative="1" as="geometry"/>
                </mxCell>
                <mxCell id="62" value="Тип" style="ellipse;whiteSpace=wrap;html=1;strokeColor=#000000;fontColor=#000000;fillColor=none;" vertex="1" parent="1">
                    <mxGeometry x="361" y="296.5" width="85.5" height="35" as="geometry"/>
                </mxCell>
                <mxCell id="63" value="Цена" style="ellipse;whiteSpace=wrap;html=1;strokeColor=#000000;fontColor=#000000;fillColor=none;" vertex="1" parent="1">
                    <mxGeometry x="361" y="247.5" width="85.5" height="35" as="geometry"/>
                </mxCell>
                <mxCell id="70" style="edgeStyle=none;rounded=0;html=1;exitX=1;exitY=0.5;exitDx=0;exitDy=0;entryX=0;entryY=0.5;entryDx=0;entryDy=0;strokeColor=#000000;fontColor=#000000;startArrow=none;startFill=0;endArrow=none;endFill=0;" edge="1" parent="1" source="67" target="17">
                    <mxGeometry relative="1" as="geometry"/>
                </mxCell>
                <mxCell id="67" value="Общая сумма" style="ellipse;whiteSpace=wrap;html=1;strokeColor=#000000;fontColor=#000000;fillColor=none;" vertex="1" parent="1">
                    <mxGeometry x="-219" y="323.75" width="85.5" height="31" as="geometry"/>
                </mxCell>
                <mxCell id="69" style="edgeStyle=none;rounded=0;html=1;exitX=1;exitY=0.5;exitDx=0;exitDy=0;entryX=0;entryY=0.5;entryDx=0;entryDy=0;strokeColor=#000000;fontColor=#000000;startArrow=none;startFill=0;endArrow=none;endFill=0;" edge="1" parent="1" source="68" target="17">
                    <mxGeometry relative="1" as="geometry"/>
                </mxCell>
                <mxCell id="68" value="Дата" style="ellipse;whiteSpace=wrap;html=1;strokeColor=#000000;fontColor=#000000;fillColor=none;" vertex="1" parent="1">
                    <mxGeometry x="-219" y="273.25" width="85.5" height="35" as="geometry"/>
                </mxCell>
                <mxCell id="79" style="edgeStyle=none;rounded=0;html=1;exitX=1;exitY=0.5;exitDx=0;exitDy=0;entryX=0;entryY=0.5;entryDx=0;entryDy=0;strokeColor=#000000;fontColor=#000000;startArrow=none;startFill=0;endArrow=none;endFill=0;" edge="1" parent="1" source="71" target="19">
                    <mxGeometry relative="1" as="geometry"/>
                </mxCell>
                <mxCell id="71" value="Телефон" style="ellipse;whiteSpace=wrap;html=1;strokeColor=#000000;fontColor=#000000;fillColor=none;" vertex="1" parent="1">
                    <mxGeometry x="-219" y="588.25" width="85.5" height="35" as="geometry"/>
                </mxCell>
                <mxCell id="78" style="edgeStyle=none;rounded=0;html=1;exitX=1;exitY=0.5;exitDx=0;exitDy=0;entryX=0;entryY=0.5;entryDx=0;entryDy=0;strokeColor=#000000;fontColor=#000000;startArrow=none;startFill=0;endArrow=none;endFill=0;" edge="1" parent="1" source="72" target="19">
                    <mxGeometry relative="1" as="geometry"/>
                </mxCell>
                <mxCell id="72" value="email" style="ellipse;whiteSpace=wrap;html=1;strokeColor=#000000;fontColor=#000000;fillColor=none;" vertex="1" parent="1">
                    <mxGeometry x="-219" y="538.75" width="85.5" height="35" as="geometry"/>
                </mxCell>
                <mxCell id="73" value="Фамилия" style="ellipse;whiteSpace=wrap;html=1;strokeColor=#000000;fontColor=#000000;fillColor=none;" vertex="1" parent="1">
                    <mxGeometry x="-219" y="489.75" width="85.5" height="35" as="geometry"/>
                </mxCell>
                <mxCell id="75" style="edgeStyle=none;rounded=0;html=1;exitX=1;exitY=0.5;exitDx=0;exitDy=0;entryX=0;entryY=0.5;entryDx=0;entryDy=0;strokeColor=#000000;fontColor=#000000;startArrow=none;startFill=0;endArrow=none;endFill=0;" edge="1" parent="1" source="74" target="19">
                    <mxGeometry relative="1" as="geometry"/>
                </mxCell>
                <mxCell id="74" value="Имя" style="ellipse;whiteSpace=wrap;html=1;strokeColor=#000000;fontColor=#000000;fillColor=none;" vertex="1" parent="1">
                    <mxGeometry x="-219" y="440.75" width="85.5" height="35" as="geometry"/>
                </mxCell>
            </root>
        </mxGraphModel>
    </diagram>
</mxfile>